<?xml version='1.0' encoding='utf-8'?>
<!-- Generator: Adobe Illustrator 23.0.1, SVG Export Plug-In . SVG Version: 6.00 Build 0)  -->
<svg xmlns="http://www.w3.org/2000/svg" version="1.2" baseProfile="tiny" xmlns:xml="http://www.w3.org/XML/1998/namespace" id="Layer_1" width="0.7in" height="1.3in" gorn="0" viewBox="0 0 50.4 93.6"  x="0px" y="0px" xml:space="preserve">
    <desc>
        <referenceFile>USB_Type_C_schematic.svg</referenceFile>
    </desc>
    <desc >Fritzing schematic generated by brd2svg</desc>
    <g id="schematic" gorn="0.1" >
        <rect stroke="#000000" width="35.55" height="64.8"  x="0.45" fill="none" stroke-linecap="round" y="14.4" stroke-linejoin="round" stroke-width="0.9"/>
        <g  transform="matrix(1 0 0 1 15.2329 43.4)">
            <text id="label" font-family="'DroidSans'" gorn="0.1.1.0"  font-size="2.8">USB</text>
        </g>
        <g  transform="matrix(1 0 0 1 14.7766 46.9)">
            <text font-family="'DroidSans'"  font-size="2.8">T</text>
        </g>
        <g  transform="matrix(1 0 0 1 16.489 46.9)">
            <text font-family="'DroidSans'"  font-size="2.8">y</text>
        </g>
        <g  transform="matrix(1 0 0 1 18.1994 46.9)">
            <text font-family="'DroidSans'"  font-size="2.8">p</text>
        </g>
        <g  transform="matrix(1 0 0 1 20.2502 46.9)">
            <text font-family="'DroidSans'"  font-size="2.8">e</text>
        </g>
        <g  transform="matrix(1 0 0 1 17.3947 50.4)">
            <text font-family="'DroidSans'"  font-size="2.8">C</text>
        </g>
        <line stroke="#787878" y1="28.8" y2="28.8" x1="35.65" x2="50.05"  fill="none" stroke-linecap="round" stroke-linejoin="round" stroke-width="0.7"/>
        <rect id="connector9pin" width="14.4" height="0.7" gorn="0.1.8"  x="36" fill="none" y="28.45"/>
        <rect id="connector9terminal" width="0" height="0.7" gorn="0.1.9"  x="50.4" fill="none" y="28.45"/>
        <g  transform="matrix(1 0 0 1 26.238 29.5)">
            <text id="label9" font-family="'DroidSans'" gorn="0.1.10.0"  font-size="2.8" fill="#8C8C8C">SBU2</text>
        </g>
        <line stroke="#787878" y1="36" y2="36" x1="35.65" x2="50.05"  fill="none" stroke-linecap="round" stroke-linejoin="round" stroke-width="0.7"/>
        <rect id="connector10pin" width="14.4" height="0.7" gorn="0.1.12"  x="36" fill="none" y="35.65"/>
        <rect id="connector10terminal" width="0" height="0.7" gorn="0.1.13"  x="50.4" fill="none" y="35.65"/>
        <g  transform="matrix(1 0 0 1 28.5212 36.7)">
            <text font-family="'DroidSans'"  font-size="2.8" fill="#8C8C8C">C</text>
        </g>
        <g  transform="matrix(1 0 0 1 30.5617 36.7)">
            <text font-family="'DroidSans'"  font-size="2.8" fill="#8C8C8C">C</text>
        </g>
        <g  transform="matrix(1 0 0 1 32.6725 36.7)">
            <text font-family="'DroidSans'"  font-size="2.8" fill="#8C8C8C">1</text>
        </g>
        <line stroke="#787878" y1="43.2" y2="43.2" x1="35.65" x2="50.05"  fill="none" stroke-linecap="round" stroke-linejoin="round" stroke-width="0.7"/>
        <rect id="connector11pin" width="14.4" height="0.7" gorn="0.1.18"  x="36" fill="none" y="42.85"/>
        <rect id="connector11terminal" width="0" height="0.7" gorn="0.1.19"  x="50.4" fill="none" y="42.85"/>
        <g  transform="matrix(1 0 0 1 31.0795 43.9)">
            <text id="label11" font-family="'DroidSans'" gorn="0.1.20.0"  font-size="2.8" fill="#8C8C8C">D-</text>
        </g>
        <line stroke="#787878" y1="50.4" y2="50.4" x1="35.65" x2="50.05"  fill="none" stroke-linecap="round" stroke-linejoin="round" stroke-width="0.7"/>
        <rect id="connector12pin" width="14.4" height="0.7" gorn="0.1.22"  x="36" fill="none" y="50.05"/>
        <rect id="connector12terminal" width="0" height="0.7" gorn="0.1.23"  x="50.4" fill="none" y="50.05"/>
        <g  transform="matrix(1 0 0 1 30.278 51.1)">
            <text id="label12" font-family="'DroidSans'" gorn="0.1.24.0"  font-size="2.8" fill="#8C8C8C">D+</text>
        </g>
        <line stroke="#787878" y1="57.6" y2="57.6" x1="35.65" x2="50.05"  fill="none" stroke-linecap="round" stroke-linejoin="round" stroke-width="0.7"/>
        <rect id="connector13pin" width="14.4" height="0.7" gorn="0.1.26"  x="36" fill="none" y="57.25"/>
        <rect id="connector13terminal" width="0" height="0.7" gorn="0.1.27"  x="50.4" fill="none" y="57.25"/>
        <g  transform="matrix(1 0 0 1 26.238 58.3)">
            <text id="label13" font-family="'DroidSans'" gorn="0.1.28.0"  font-size="2.8" fill="#8C8C8C">SBU1</text>
        </g>
        <line stroke="#787878" y1="64.8" y2="64.8" x1="35.65" x2="50.05"  fill="none" stroke-linecap="round" stroke-linejoin="round" stroke-width="0.7"/>
        <rect id="connector14pin" width="14.4" height="0.7" gorn="0.1.30"  x="36" fill="none" y="64.45"/>
        <rect id="connector14terminal" width="0" height="0.7" gorn="0.1.31"  x="50.4" fill="none" y="64.45"/>
        <g  transform="matrix(1 0 0 1 28.5212 65.5)">
            <text font-family="'DroidSans'"  font-size="2.8" fill="#8C8C8C">C</text>
        </g>
        <g  transform="matrix(1 0 0 1 30.5617 65.5)">
            <text font-family="'DroidSans'"  font-size="2.8" fill="#8C8C8C">C</text>
        </g>
        <g  transform="matrix(1 0 0 1 32.6725 65.5)">
            <text font-family="'DroidSans'"  font-size="2.8" fill="#8C8C8C">2</text>
        </g>
        <line stroke="#787878" y1="0.35" y2="14.4" x1="28.8" x2="28.8"  fill="none" stroke-linecap="round" stroke-linejoin="round" stroke-width="0.7"/>
        <rect id="connector8pin" width="0.7" height="14.4" gorn="0.1.36"  x="28.45" fill="none"/>
        <polygon points="28.45,0 29.15,0 29.15,0 " id="connector8terminal" gorn="0.1.37"  fill="none"/>
        <g  transform="matrix(1, 0, 0, 1, 15.8, 16)">
            <g >
                <g  transform="rotate(270)">
                    <g >
                        <g  transform="matrix(1 0 0 1 -8.4219 14.4)">
                            <text id="label8" font-family="'DroidSans'" gorn="0.1.38.0.0.0.0.0"  font-size="2.8" fill="#8C8C8C">VBUS</text>
                        </g>
                    </g>
                </g>
            </g>
        </g>
        <line stroke="#787878" y1="79.2" y2="93.25" x1="28.8" x2="28.8"  fill="none" stroke-linecap="round" stroke-linejoin="round" stroke-width="0.7"/>
        <rect id="connector7pin" width="0.7" height="14.4" gorn="0.1.40"  x="28.45" fill="none" y="79.2"/>
        <polygon points="28.45,93.6 29.15,93.6 29.15,93.6 " id="connector7terminal" gorn="0.1.41"  fill="none"/>
        <g  transform="matrix(1, 0, 0, 1, 15.8, 77.6002)">
            <g >
                <g  transform="rotate(270)">
                    <g >
                        <g  transform="matrix(1 0 0 1 -3.889375e-04 14.4)">
                            <text id="label7" font-family="'DroidSans'" gorn="0.1.42.0.0.0.0.0"  font-size="2.8" fill="#8C8C8C">GND</text>
                        </g>
                    </g>
                </g>
            </g>
        </g>
    </g>
</svg>
