<?xml version='1.0' encoding='utf-8'?>
<!-- Generator: Adobe Illustrator 23.0.1, SVG Export Plug-In . SVG Version: 6.00 Build 0)  -->
<svg xmlns="http://www.w3.org/2000/svg" version="1.2" baseProfile="tiny" xmlns:xml="http://www.w3.org/XML/1998/namespace" id="Layer_1" width="0.8in" height="0.55in" gorn="0" viewBox="0 0 57.6 39.6"  x="0px" y="0px" xml:space="preserve">
    <desc>
        <referenceFile>USB_Type_C_breadboard.svg</referenceFile>
    </desc>
    <desc >Fritzing breadboard generated by brd2svg</desc>
    <g id="breadboard" gorn="0.1" >
        <g id="icon" gorn="0.1.0" >
            <path d="M57.6,7.2v25.2c0,3.976-3.224,7.2-7.2,7.2H7.2c-3.976,0-7.2-3.224-7.2-7.2V7.2C0,3.224,3.224,0,7.2,0c0,0,0,0,0,0h43.2C54.376,0,57.6,3.224,57.6,7.2 M52.583,32.4c0,0.783,0.635,1.417,1.417,1.417c0.783,0,1.417-0.635,1.417-1.417c0-0.783-0.635-1.417-1.417-1.417S52.583,31.617,52.583,32.4z M45.383,32.4c0,0.783,0.635,1.417,1.417,1.417c0.783,0,1.417-0.635,1.417-1.417c0-0.783-0.635-1.417-1.417-1.417S45.383,31.617,45.383,32.4z M38.183,32.4c0,0.783,0.635,1.417,1.417,1.417s1.417-0.635,1.417-1.417c0-0.783-0.635-1.417-1.417-1.417S38.183,31.617,38.183,32.4z M30.983,32.4c0,0.783,0.635,1.417,1.417,1.417c0.783,0,1.417-0.635,1.417-1.417c0-0.783-0.635-1.417-1.417-1.417C31.617,30.983,30.983,31.617,30.983,32.4z M23.783,32.4c0,0.783,0.635,1.417,1.417,1.417c0.783,0,1.417-0.635,1.417-1.417c0-0.783-0.635-1.417-1.417-1.417C24.417,30.983,23.783,31.617,23.783,32.4z M16.583,32.4c0,0.783,0.635,1.417,1.417,1.417c0.783,0,1.417-0.635,1.417-1.417c0-0.783-0.635-1.417-1.417-1.417C17.217,30.983,16.583,31.617,16.583,32.4z M9.383,32.4c0,0.783,0.635,1.417,1.417,1.417s1.417-0.635,1.417-1.417c0-0.783-0.635-1.417-1.417-1.417S9.383,31.617,9.383,32.4z M2.183,32.4c0,0.783,0.635,1.417,1.417,1.417s1.417-0.635,1.417-1.417c0-0.783-0.635-1.417-1.417-1.417S2.183,31.617,2.183,32.4z M46.857,7.2c-0.003,1.957,1.58,3.546,3.537,3.55s3.546-1.58,3.55-3.537c0-0.004,0-0.008,0-0.012c0.003-1.957-1.58-3.546-3.537-3.55c-1.957-0.003-3.546,1.58-3.55,3.537C46.857,7.192,46.857,7.196,46.857,7.2z M3.657,7.2c-0.003,1.957,1.58,3.546,3.537,3.549s3.546-1.58,3.549-3.537c0-0.004,0-0.008,0-0.012c0.003-1.957-1.58-3.546-3.537-3.549C5.249,3.647,3.66,5.231,3.657,7.188C3.657,7.192,3.657,7.196,3.657,7.2z"  fill="#014CB1"/>
            <g >
                <title >layer 21</title>
                <g >
                    <title >text:VBUS</title>
                    <g  transform="matrix(1 0 0 1 42.9354 38.6726)">
                        <text font-family="'OCRA'"  font-size="2.6726" fill="#FFFFFF">VBUS</text>
                    </g>
                </g>
                <g >
                    <title >text:D-</title>
                    <g  transform="matrix(1 0 0 1 23.2677 28.8)">
                        <text font-family="'OCRA'"  font-size="2.6726" fill="#FFFFFF">D-</text>
                    </g>
                </g>
                <g >
                    <title >text:D+</title>
                    <g  transform="matrix(1 0 0 1 16.0677 38.6726)">
                        <text font-family="'OCRA'"  font-size="2.6726" fill="#FFFFFF">D+</text>
                    </g>
                </g>
                <g >
                    <title >text:SBU2</title>
                    <g  transform="matrix(1 0 0 1 35.7354 28.8)">
                        <text font-family="'OCRA'"  font-size="2.6726" fill="#FFFFFF">SBU2</text>
                    </g>
                </g>
                <g >
                    <title >text:CC1</title>
                    <g  transform="matrix(1 0 0 1 29.5016 38.6726)">
                        <text font-family="'OCRA'"  font-size="2.6726" fill="#FFFFFF">CC1</text>
                    </g>
                </g>
                <g >
                    <title >text:GND</title>
                    <g  transform="matrix(1 0 0 1 50.3816 28.8)">
                        <text font-family="'OCRA'"  font-size="2.6726" fill="#FFFFFF">GND</text>
                    </g>
                </g>
                <g >
                    <title >text:USB C</title>
                    <g  transform="matrix(1 0 0 1 43.6416 24.9408)">
                        <text font-family="'OCRA'"  font-size="3.3408" fill="#FFFFFF">USB C</text>
                    </g>
                </g>
                <g >
                    <title >text:SBU1</title>
                    <g  transform="matrix(1 0 0 1 6.9354 28.8)">
                        <text font-family="'OCRA'"  font-size="2.6726" fill="#FFFFFF">SBU1</text>
                    </g>
                </g>
                <g >
                    <title >text:CC2</title>
                    <g  transform="matrix(1 0 0 1 3.5815 38.6726)">
                        <text font-family="'OCRA'"  font-size="2.6726" fill="#FFFFFF">CC2</text>
                    </g>
                </g>
                <g >
                    <title >element:FID1</title>
                    <g >
                        <title >package:FIDUCIAL_1MM</title>
                    </g>
                </g>
                <g >
                    <title >element:FID2</title>
                    <g >
                        <title >package:FIDUCIAL_1MM</title>
                    </g>
                </g>
                <g >
                    <title >element:JP1</title>
                    <g >
                        <title >package:1X08_ROUND_76</title>
                    </g>
                </g>
                <g >
                    <title >element:R1</title>
                    <g >
                        <title >package:0603-NO</title>
                        <line stroke="#FFFFFF" y1="21.906" y2="24.174" x1="5.76" x2="5.76"  fill="none" stroke-linecap="round" stroke-width="0.864"/>
                    </g>
                </g>
                <g >
                    <title >element:R2</title>
                    <g >
                        <title >package:0603-NO</title>
                        <line stroke="#FFFFFF" y1="16.866" y2="19.134" x1="5.76" x2="5.76"  fill="none" stroke-linecap="round" stroke-width="0.864"/>
                    </g>
                </g>
                <g >
                    <title >element:U$1</title>
                    <g >
                        <title >package:MOUNTINGHOLE_2.5_PLATED</title>
                        <circle stroke="#FFFFFF" r="5.669" cx="50.4" cy="7.2"  fill="none" stroke-width="0.576"/>
                    </g>
                </g>
                <g >
                    <title >element:U$2</title>
                    <g >
                        <title >package:MOUNTINGHOLE_2.5_PLATED</title>
                        <circle stroke="#FFFFFF" r="5.669" cx="7.2" cy="7.2"  fill="none" stroke-width="0.576"/>
                    </g>
                </g>
                <g >
                    <title >element:U$3</title>
                    <g >
                        <title >package:ADAFRUIT_2.5MM</title>
                    </g>
                </g>
                <g >
                    <title >element:U$8</title>
                    <g >
                        <title >package:PCBFEAT-REV-040</title>
                    </g>
                </g>
            </g>
            <circle stroke="#9A916C" id="connector7pin" r="2.077" gorn="0.1.0.2" cx="54" cy="32.4"  fill="none" stroke-width="1.3187"/>
            <circle stroke="#9A916C" id="connector8pin" r="2.077" gorn="0.1.0.3" cx="46.8" cy="32.4"  fill="none" stroke-width="1.3187"/>
            <circle stroke="#9A916C" id="connector9pin" r="2.077" gorn="0.1.0.4" cx="39.6" cy="32.4"  fill="none" stroke-width="1.3187"/>
            <circle stroke="#9A916C" id="connector10pin" r="2.077" gorn="0.1.0.5" cx="32.4" cy="32.4"  fill="none" stroke-width="1.3187"/>
            <circle stroke="#9A916C" id="connector11pin" r="2.077" gorn="0.1.0.6" cx="25.2" cy="32.4"  fill="none" stroke-width="1.3187"/>
            <circle stroke="#9A916C" id="connector12pin" r="2.077" gorn="0.1.0.7" cx="18" cy="32.4"  fill="none" stroke-width="1.3187"/>
            <circle stroke="#9A916C" id="connector13pin" r="2.077" gorn="0.1.0.8" cx="10.8" cy="32.4"  fill="none" stroke-width="1.3187"/>
            <circle stroke="#9A916C" id="connector14pin" r="2.077" gorn="0.1.0.9" cx="3.6" cy="32.4"  fill="none" stroke-width="1.3187"/>
            <rect id="connector15pin" width="3.047" height="2.835" gorn="0.1.0.10"  x="1.827" fill="#9A916C" y="21.623"/>
            <rect id="connector16pin" width="3.047" height="2.835" gorn="0.1.0.11"  x="6.646" fill="#9A916C" y="21.623"/>
            <rect id="connector17pin" width="3.047" height="2.835" gorn="0.1.0.12"  x="1.827" fill="#9A916C" y="16.583"/>
            <rect id="connector18pin" width="3.047" height="2.835" gorn="0.1.0.13"  x="6.646" fill="#9A916C" y="16.583"/>
            <circle stroke="#9A916C" id="connector19pin" r="4.263" gorn="0.1.0.14" cx="50.4" cy="7.2"  fill="none" stroke-width="1.44"/>
            <circle stroke="#9A916C" id="connector20pin" r="4.263" gorn="0.1.0.15" cx="7.2" cy="7.2"  fill="none" stroke-width="1.44"/>
        </g>
        <g  transform="matrix(1, 0, 0, 1, 3.4925, 21.906)">
            <g >
                <path d="M4.245,2.268H0.29C0.13,2.268,0,2.138,0,1.977V0.29C0,0.13,0.13,0,0.29,0h3.955c0.16,0,0.29,0.13,0.29,0.29v1.687C4.535,2.138,4.405,2.268,4.245,2.268z"  fill="#DCDCDC"/>
                <rect width="2.268" height="2.268"  x="1.134" fill="#333333" y="0"/>
            </g>
        </g>
        <g  transform="matrix(1, 0, 0, 1, 3.4925, 16.866)">
            <g >
                <path d="M4.245,2.268H0.29C0.13,2.268,0,2.138,0,1.977V0.29C0,0.13,0.13,0,0.29,0h3.955c0.16,0,0.29,0.13,0.29,0.29v1.687C4.535,2.138,4.405,2.268,4.245,2.268z"  fill="#DCDCDC"/>
                <rect width="2.268" height="2.268"  x="1.134" fill="#333333" y="0"/>
            </g>
        </g>
        <g  transform="matrix(1, 0, 0, 1, 46.3782, 10.7994)">
            <g id="adafruit_2.5mm" gorn="0.1.3.0" >
                <g  transform="matrix(-1, 0, 0, -1, 9.77702, 9.77702)">
                    <g >
                        <path d="M9.747,3.082c-0.023-0.142-0.1-0.183-0.286-0.243C9.319,2.794,8.372,2.492,8.372,2.492s-0.66-0.249-1.15,0.103c-0.066,0.048-0.134,0.102-0.203,0.16c0.058-0.069,0.112-0.137,0.159-0.203c0.352-0.49,0.101-1.15,0.101-1.15S6.976,0.455,6.93,0.313C6.87,0.127,6.83,0.05,6.687,0.028C6.545,0.005,6.483,0.066,6.369,0.225c-0.087,0.12-0.667,0.928-0.667,0.928S5.261,1.704,5.445,2.279C5.47,2.356,5.5,2.438,5.534,2.521C5.486,2.445,5.438,2.372,5.39,2.307C5.032,1.821,4.328,1.855,4.328,1.855S3.333,1.851,3.185,1.851c-0.195,0-0.281,0.014-0.347,0.143C2.773,2.122,2.811,2.2,2.927,2.358c0.088,0.12,0.677,0.921,0.677,0.921s0.388,0.59,0.991,0.592c0.081,0,0.168-0.003,0.257-0.01C4.765,3.883,4.681,3.907,4.604,3.932c-0.573,0.19-0.758,0.871-0.758,0.871s-0.31,0.944-0.357,1.085C3.428,6.074,3.416,6.16,3.518,6.262C3.62,6.364,3.706,6.352,3.892,6.29c0.141-0.046,1.085-0.359,1.085-0.359s0.681-0.187,0.869-0.76c0.025-0.077,0.049-0.16,0.07-0.247C5.91,5.014,5.907,5.1,5.907,5.181c0.004,0.603,0.594,0.99,0.594,0.99s0.802,0.588,0.922,0.675C7.581,6.962,7.659,7,7.788,6.935C7.916,6.869,7.931,6.783,7.93,6.588C7.929,6.439,7.924,5.445,7.924,5.445S7.957,4.74,7.47,4.383C7.405,4.335,7.332,4.287,7.256,4.24c0.083,0.034,0.165,0.064,0.242,0.088c0.575,0.183,1.125-0.259,1.125-0.259S9.43,3.488,9.55,3.401C9.709,3.286,9.769,3.224,9.747,3.082z M6.322,2.35c0.108,0.017,0.162,0.248,0.12,0.515C6.4,3.132,6.278,3.335,6.169,3.318C6.061,3.301,6.007,3.07,6.049,2.803C6.091,2.535,6.213,2.332,6.322,2.35z M4.933,3.059c0.05-0.098,0.286-0.078,0.527,0.045s0.397,0.302,0.347,0.399C5.757,3.601,5.521,3.581,5.28,3.458C5.038,3.335,4.883,3.157,4.933,3.059z M5.665,4.393C5.474,4.584,5.256,4.677,5.178,4.599C5.101,4.521,5.193,4.303,5.384,4.112C5.575,3.92,5.793,3.827,5.871,3.905C5.949,3.983,5.857,4.201,5.665,4.393z M6.719,4.842c-0.098,0.05-0.277-0.105-0.4-0.346C6.196,4.254,6.175,4.018,6.273,3.968c0.098-0.05,0.277,0.105,0.4,0.346C6.796,4.556,6.817,4.792,6.719,4.842z M6.973,3.725C6.706,3.767,6.475,3.714,6.457,3.606C6.44,3.497,6.643,3.375,6.91,3.332c0.267-0.043,0.498,0.011,0.515,0.119C7.443,3.56,7.24,3.682,6.973,3.725z"  fill="#DCDCDC"/>
                    </g>
                </g>
            </g>
        </g>
    </g>
    <g >
        <g  transform="matrix(-1 -8.979496e-11 8.979496e-11 -1 57.6 20.8346)">
            <rect width="25.342" height="20.835"  x="16.129" fill="#DCDCDC" y="0"/>
        </g>
        <path d="M38.013,20.268h0.567v1.304h-0.567V20.268z M37.162,21.572h0.567v-1.304h-0.567V21.572z M35.745,21.572h0.567v-1.304h-0.567V21.572z M34.894,21.572h0.567v-1.304h-0.567V21.572z M33.477,21.572h0.567v-1.304h-0.567V21.572z M32.06,21.572h0.567v-1.304H32.06V21.572z M30.643,21.572h0.567v-1.304h-0.567V21.572z M29.225,21.572h0.567v-1.304h-0.567V21.572z M27.808,21.572h0.567v-1.304h-0.567V21.572z M26.391,21.572h0.567v-1.304h-0.567V21.572z M24.973,21.572h0.567v-1.304h-0.567V21.572z M23.556,21.572h0.567v-1.304h-0.567V21.572z M22.139,21.572h0.567v-1.304h-0.567V21.572z M21.288,21.572h0.567v-1.304h-0.567V21.572z M19.871,21.572h0.567v-1.304h-0.567V21.572z M19.02,21.572h0.567v-1.304H19.02V21.572z"  fill="#DCDCDC"/>
        <g  transform="matrix(-1 -8.973501e-11 8.973501e-11 -1 77.5562 20.8346)">
            <rect width="1.297" height="20.835"  x="38.129" fill="#F0F0F0" y="0"/>
        </g>
        <g  transform="matrix(-1 -8.973501e-11 8.973501e-11 -1 37.6438 20.8346)">
            <rect width="1.297" height="20.835"  x="18.173" fill="#BEBEBE" y="0"/>
        </g>
        <path d="M16.129,20.835v-1.998h0.283c0.344,0,0.624,0.279,0.624,0.624v0.533c0,0.344,0.279,0.624,0.624,0.624h2.831c0.344,0,0.624-0.279,0.624-0.624v-2.022c0-0.344,0.279-0.624,0.624-0.624h3.413c0.344,0,0.624,0.279,0.624,0.624v0.047c0,0.344-0.279,0.624-0.624,0.624h-1.536c-0.344,0-0.624,0.279-0.624,0.624v0.727c0,0.344,0.279,0.624,0.624,0.624h10.372c0.344,0,0.624-0.279,0.624-0.624v-0.727c0-0.344-0.279-0.624-0.624-0.624H32.45c-0.344,0-0.624-0.279-0.624-0.624v-0.047c0-0.344,0.279-0.624,0.624-0.624h3.413c0.344,0,0.624,0.279,0.624,0.624v2.022c0,0.344,0.279,0.624,0.624,0.624h2.831c0.344,0,0.624-0.279,0.624-0.624V19.46c0-0.344,0.279-0.624,0.624-0.624h0.283v1.998H16.129z"  fill="#8C8C8C"/>
        <g  transform="matrix(-1 -8.929359e-11 8.929359e-11 -1 67.6979 28.6106)">
            <rect width="3.463" height="1.424"  x="32.117" fill="#8C8C8C" y="13.593"/>
        </g>
        <rect width="3.463" height="1.424"  x="22.02" fill="#8C8C8C" y="13.593"/>
    </g>
</svg>
