<?xml version='1.0' encoding='UTF-8' standalone='no'?>
<!-- Created with Fritzing (http://www.fritzing.org/) -->
<svg xmlns="http://www.w3.org/2000/svg" version="1.2" baseProfile="tiny" width="0.8in" height="0.55in" viewBox="0 0 57.6 39.6"  x="0in" y="0in">
    <desc>
        <referenceFile>USB_Type_C_pcb.svg</referenceFile>
    </desc>
    <desc >Fritzing footprint generated by brd2svg</desc>
    <g id="silkscreen" gorn="0.1" >
        <path stroke="white" d="M57.312,7.38324L57.312,32.2168A6.912,6.912,0,0,1,50.184,39.312L7.416,39.312A6.912,6.912,0,0,1,0.288,32.2168L0.288,7.38324A6.912,6.912,0,0,1,7.416,0.288L50.184,0.288A6.912,6.912,0,0,1,57.312,7.38324"  fill="none" stroke-width="0.576"/>
        <g >
            <title >element:JP1</title>
            <g >
                <title >package:1X08_ROUND_76</title>
            </g>
        </g>
    </g>
    <g id="copper1" gorn="0.2" >
        <g id="copper0" gorn="0.2.0" >
            <circle stroke="#F7BD13" id="connector14pad" r="2.07666" gorn="0.2.0.0" cx="3.6" connectorname="CC2" cy="32.4"  fill="none" stroke-width="1.31868"/>
            <circle stroke="#F7BD13" id="connector7pad" r="2.07666" gorn="0.2.0.1" cx="54" connectorname="GND" cy="32.4"  fill="none" stroke-width="1.31868"/>
            <circle stroke="#F7BD13" id="connector8pad" r="2.07666" gorn="0.2.0.2" cx="46.8" connectorname="VBUS" cy="32.4"  fill="none" stroke-width="1.31868"/>
            <circle stroke="#F7BD13" id="connector20pad" r="4.26331" gorn="0.2.0.3" cx="7.2" connectorname="P$1" cy="7.2"  fill="none" stroke-width="1.44"/>
            <circle stroke="#F7BD13" id="connector9pad" r="2.07666" gorn="0.2.0.4" cx="39.6" connectorname="SBU2" cy="32.4"  fill="none" stroke-width="1.31868"/>
            <circle stroke="#F7BD13" id="connector10pad" r="2.07666" gorn="0.2.0.5" cx="32.4" connectorname="CC1" cy="32.4"  fill="none" stroke-width="1.31868"/>
            <circle stroke="#F7BD13" id="connector11pad" r="2.07666" gorn="0.2.0.6" cx="25.2" connectorname="D-" cy="32.4"  fill="none" stroke-width="1.31868"/>
            <circle stroke="#F7BD13" id="connector19pad" r="4.26331" gorn="0.2.0.7" cx="50.4" connectorname="P$1" cy="7.2"  fill="none" stroke-width="1.44"/>
            <circle stroke="#F7BD13" id="connector12pad" r="2.07666" gorn="0.2.0.8" cx="18" connectorname="D+" cy="32.4"  fill="none" stroke-width="1.31868"/>
            <circle stroke="#F7BD13" id="connector13pad" r="2.07666" gorn="0.2.0.9" cx="10.8" connectorname="SBU1" cy="32.4"  fill="none" stroke-width="1.31868"/>
        </g>
    </g>
</svg>
